<svg height="1726.05078125" version="1.1" width="872.849609375" xmlns="http://www.w3.org/2000/svg" xmlns:xlink="http://www.w3.org/1999/xlink" style="overflow: hidden; position: relative; left: -0.28125px; top: -0.900543px; color: rgb(51, 51, 51);" viewBox="0 0 872.849609375 1726.05078125" preserveAspectRatio="xMidYMid meet"><desc>Created with Raphaël 2.2.0</desc><defs><path stroke-linecap="round" d="M5,0 0,2.5 5,5z" id="raphael-marker-block"></path><marker id="raphael-marker-endblock33-obj6858x" markerHeight="3" markerWidth="3" orient="auto" refX="1.5" refY="1.5"><use href="#raphael-marker-block" transform="rotate(180 1.5 1.5) scale(0.6,0.6)" stroke-width="1.6667" fill="currentColor" stroke="none"></use></marker><marker id="raphael-marker-endblock33-objvr8eb" markerHeight="3" markerWidth="3" orient="auto" refX="1.5" refY="1.5"><use href="#raphael-marker-block" transform="rotate(180 1.5 1.5) scale(0.6,0.6)" stroke-width="1.6667" fill="currentColor" stroke="none"></use></marker><marker id="raphael-marker-endblock33-obj21x6e" markerHeight="3" markerWidth="3" orient="auto" refX="1.5" refY="1.5"><use href="#raphael-marker-block" transform="rotate(180 1.5 1.5) scale(0.6,0.6)" stroke-width="1.6667" fill="currentColor" stroke="none"></use></marker><marker id="raphael-marker-endblock33-objhmk20" markerHeight="3" markerWidth="3" orient="auto" refX="1.5" refY="1.5"><use href="#raphael-marker-block" transform="rotate(180 1.5 1.5) scale(0.6,0.6)" stroke-width="1.6667" fill="currentColor" stroke="none"></use></marker><marker id="raphael-marker-endblock33-obja2kgt" markerHeight="3" markerWidth="3" orient="auto" refX="1.5" refY="1.5"><use href="#raphael-marker-block" transform="rotate(180 1.5 1.5) scale(0.6,0.6)" stroke-width="1.6667" fill="currentColor" stroke="none"></use></marker><marker id="raphael-marker-endblock33-obje41gj" markerHeight="3" markerWidth="3" orient="auto" refX="1.5" refY="1.5"><use href="#raphael-marker-block" transform="rotate(180 1.5 1.5) scale(0.6,0.6)" stroke-width="1.6667" fill="currentColor" stroke="none"></use></marker><marker id="raphael-marker-endblock33-objcyeua" markerHeight="3" markerWidth="3" orient="auto" refX="1.5" refY="1.5"><use href="#raphael-marker-block" transform="rotate(180 1.5 1.5) scale(0.6,0.6)" stroke-width="1.6667" fill="currentColor" stroke="none"></use></marker><marker id="raphael-marker-endblock33-objmhmp6" markerHeight="3" markerWidth="3" orient="auto" refX="1.5" refY="1.5"><use href="#raphael-marker-block" transform="rotate(180 1.5 1.5) scale(0.6,0.6)" stroke-width="1.6667" fill="currentColor" stroke="none"></use></marker><marker id="raphael-marker-endblock33-objkjcpr" markerHeight="3" markerWidth="3" orient="auto" refX="1.5" refY="1.5"><use href="#raphael-marker-block" transform="rotate(180 1.5 1.5) scale(0.6,0.6)" stroke-width="1.6667" fill="currentColor" stroke="none"></use></marker><marker id="raphael-marker-endblock33-objokwql" markerHeight="3" markerWidth="3" orient="auto" refX="1.5" refY="1.5"><use href="#raphael-marker-block" transform="rotate(180 1.5 1.5) scale(0.6,0.6)" stroke-width="1.6667" fill="currentColor" stroke="none"></use></marker><marker id="raphael-marker-endblock33-objvx9nf" markerHeight="3" markerWidth="3" orient="auto" refX="1.5" refY="1.5"><use href="#raphael-marker-block" transform="rotate(180 1.5 1.5) scale(0.6,0.6)" stroke-width="1.6667" fill="currentColor" stroke="none"></use></marker><marker id="raphael-marker-endblock33-objnfsy5" markerHeight="3" markerWidth="3" orient="auto" refX="1.5" refY="1.5"><use href="#raphael-marker-block" transform="rotate(180 1.5 1.5) scale(0.6,0.6)" stroke-width="1.6667" fill="currentColor" stroke="none"></use></marker><marker id="raphael-marker-endblock33-obj5ksnv" markerHeight="3" markerWidth="3" orient="auto" refX="1.5" refY="1.5"><use href="#raphael-marker-block" transform="rotate(180 1.5 1.5) scale(0.6,0.6)" stroke-width="1.6667" fill="currentColor" stroke="none"></use></marker><marker id="raphael-marker-endblock33-objj2vsw" markerHeight="3" markerWidth="3" orient="auto" refX="1.5" refY="1.5"><use href="#raphael-marker-block" transform="rotate(180 1.5 1.5) scale(0.6,0.6)" stroke-width="1.6667" fill="currentColor" stroke="none"></use></marker></defs><rect x="0" y="0" width="48.1875" height="35.75" rx="20" ry="20" fill="none" stroke="currentColor" style="" stroke-width="3" class="flowchart" id="start" transform="matrix(1,0,0,1,223.2734,46.9355)"></rect><text style="text-anchor: start; font-family: Arial; font-size: 14px;" x="10" y="17.875" text-anchor="start" font-family="&quot;Arial&quot;" font-size="14px" stroke="none" fill="currentColor" id="startt" class="flowchartt" transform="matrix(1,0,0,1,223.2734,46.9355)" stroke-width="1"><tspan dy="4.8828125">开始</tspan></text><rect x="0" y="0" width="160.921875" height="35.75" rx="0" ry="0" fill="none" stroke="currentColor" style="" stroke-width="3" class="flowchart" id="legal_p" transform="matrix(1,0,0,1,166.9063,179.6211)"></rect><text style="text-anchor: start; font-family: Arial; font-size: 14px;" x="10" y="17.875" text-anchor="start" font-family="&quot;Arial&quot;" font-size="14px" stroke="none" fill="currentColor" id="legal_pt" class="flowchartt" transform="matrix(1,0,0,1,166.9063,179.6211)" stroke-width="1"><tspan dy="4.8828125">在线申请学校法人证书</tspan></text><path style="" fill="none" stroke="currentColor" d="M58.810546875,29.4052734375L0,58.810546875L117.62109375,117.62109375L235.2421875,58.810546875L117.62109375,0L0,58.810546875" stroke-width="3" id="is_self" class="flowchart" transform="matrix(1,0,0,1,129.7461,271.3711)"></path><text style="text-anchor: start; font-family: Arial; font-size: 14px;" x="63.810546875" y="58.810546875" text-anchor="start" font-family="&quot;Arial&quot;" font-size="14px" stroke="none" fill="currentColor" id="is_selft" class="flowchartt" transform="matrix(1,0,0,1,129.7461,271.3711)" stroke-width="1"><tspan dy="4.888671875">是否由代理机构代发</tspan></text><path style="" fill="none" stroke="currentColor" d="M10,17.875L0,35.75L265.46875,35.75L285.46875,0L20,0L10,17.875" stroke-width="3" id="prepare" class="flowchart" transform="matrix(1,0,0,1,104.6328,485.9277)"></path><text style="text-anchor: start; font-family: Arial; font-size: 14px;" x="30" y="17.875" text-anchor="start" font-family="&quot;Arial&quot;" font-size="14px" stroke="none" fill="currentColor" id="preparet" class="flowchartt" transform="matrix(1,0,0,1,104.6328,485.9277)" stroke-width="1"><tspan dy="4.8828125">编写《源码文件》与《软件说明书》</tspan></text><rect x="0" y="0" width="231.375" height="35.75" rx="0" ry="0" fill="none" stroke="currentColor" style="" stroke-width="3" class="flowchart" id="submit_self" transform="matrix(1,0,0,1,131.6797,618.6133)"></rect><text style="text-anchor: start; font-family: Arial; font-size: 14px;" x="10" y="17.875" text-anchor="start" font-family="&quot;Arial&quot;" font-size="14px" stroke="none" fill="currentColor" id="submit_selft" class="flowchartt" transform="matrix(1,0,0,1,131.6797,618.6133)" stroke-width="1"><tspan dy="4.8828125">在中国版权中心网站提交软著申请</tspan></text><rect x="0" y="0" width="118.640625" height="35.75" rx="0" ry="0" fill="none" stroke="currentColor" style="" stroke-width="3" class="flowchart" id="auth_code" transform="matrix(1,0,0,1,188.0469,751.2988)"></rect><text style="text-anchor: start; font-family: Arial; font-size: 14px;" x="10" y="17.875" text-anchor="start" font-family="&quot;Arial&quot;" font-size="14px" stroke="none" fill="currentColor" id="auth_codet" class="flowchartt" transform="matrix(1,0,0,1,188.0469,751.2988)" stroke-width="1"><tspan dy="4.8828125">发送学校授权码</tspan></text><path style="" fill="none" stroke="currentColor" d="M10,17.875L0,35.75L462.734375,35.75L482.734375,0L20,0L10,17.875" stroke-width="3" id="scu_record" class="flowchart" transform="matrix(1,0,0,1,6,883.9844)"></path><text style="text-anchor: start; font-family: Arial; font-size: 14px;" x="30" y="17.875" text-anchor="start" font-family="&quot;Arial&quot;" font-size="14px" stroke="none" fill="currentColor" id="scu_recordt" class="flowchartt" transform="matrix(1,0,0,1,6,883.9844)" stroke-width="1"><tspan dy="4.8828125">填写打印《四川大学软件著作权申请信息登记表》，简称《川大表》</tspan></text><rect x="0" y="0" width="217.28125" height="35.75" rx="0" ry="0" fill="none" stroke="currentColor" style="" stroke-width="3" class="flowchart" id="dept_work" transform="matrix(1,0,0,1,138.7266,1016.6699)"></rect><text style="text-anchor: start; font-family: Arial; font-size: 14px;" x="10" y="17.875" text-anchor="start" font-family="&quot;Arial&quot;" font-size="14px" stroke="none" fill="currentColor" id="dept_workt" class="flowchartt" transform="matrix(1,0,0,1,138.7266,1016.6699)" stroke-width="1"><tspan dy="4.8828125">《川大表》二级单位处盖学院章</tspan></text><rect x="0" y="0" width="461.5625" height="35.75" rx="0" ry="0" fill="none" stroke="currentColor" style="" stroke-width="3" class="flowchart" id="total_1" transform="matrix(1,0,0,1,16.5859,1149.3555)"></rect><text style="text-anchor: start; font-family: Arial; font-size: 14px;" x="10" y="17.875" text-anchor="start" font-family="&quot;Arial&quot;" font-size="14px" stroke="none" fill="currentColor" id="total_1t" class="flowchartt" transform="matrix(1,0,0,1,16.5859,1149.3555)" stroke-width="1"><tspan dy="4.8828125">【望江行政楼341】1.索取学校授权码；2.提交《川大表》并拍照备份；</tspan></text><rect x="0" y="0" width="339.421875" height="35.75" rx="0" ry="0" fill="none" stroke="currentColor" style="" stroke-width="3" class="flowchart" id="total_2" transform="matrix(1,0,0,1,77.6563,1282.041)"></rect><text style="text-anchor: start; font-family: Arial; font-size: 14px;" x="10" y="17.875" text-anchor="start" font-family="&quot;Arial&quot;" font-size="14px" stroke="none" fill="currentColor" id="total_2t" class="flowchartt" transform="matrix(1,0,0,1,77.6563,1282.041)" stroke-width="1"><tspan dy="4.8828125">【望江行政楼331】法人证书申请通过后，自助打印</tspan></text><rect x="0" y="0" width="369.9375" height="50.15625" rx="0" ry="0" fill="none" stroke="currentColor" style="" stroke-width="3" class="flowchart" id="total_3" transform="matrix(1,0,0,1,62.3984,1407.5234)"></rect><text style="text-anchor: start; font-family: Arial; font-size: 14px;" x="10" y="25.078125" text-anchor="start" font-family="&quot;Arial&quot;" font-size="14px" stroke="none" fill="currentColor" id="total_3t" class="flowchartt" transform="matrix(1,0,0,1,62.3984,1407.5234)" stroke-width="1"><tspan dy="-2.3125">1.在中国版权中心网站填写学校授权码正式提交电子档；</tspan><tspan dy="14.399999999999999" x="10">2.打印网站自动生成的《软著申请表》</tspan></text><rect x="0" y="0" width="283.0625" height="35.75" rx="0" ry="0" fill="none" stroke="currentColor" style="" stroke-width="3" class="flowchart" id="total_4" transform="matrix(1,0,0,1,105.8359,1554.6152)"></rect><text style="text-anchor: start; font-family: Arial; font-size: 14px;" x="10" y="17.875" text-anchor="start" font-family="&quot;Arial&quot;" font-size="14px" stroke="none" fill="currentColor" id="total_4t" class="flowchartt" transform="matrix(1,0,0,1,105.8359,1554.6152)" stroke-width="1"><tspan dy="4.8828125">【望江行政楼341】《软著申请表》盖校章</tspan></text><rect x="0" y="0" width="175.015625" height="35.75" rx="20" ry="20" fill="none" stroke="currentColor" style="" stroke-width="3" class="flowchart" id="end" transform="matrix(1,0,0,1,159.8594,1687.3008)"></rect><text style="text-anchor: start; font-family: Arial; font-size: 14px;" x="10" y="17.875" text-anchor="start" font-family="&quot;Arial&quot;" font-size="14px" stroke="none" fill="currentColor" id="endt" class="flowchartt" transform="matrix(1,0,0,1,159.8594,1687.3008)" stroke-width="1"><tspan dy="4.8828125">邮寄指定纸质材料，结束</tspan></text><rect x="0" y="0" width="287.734375" height="35.75" rx="0" ry="0" fill="none" stroke="currentColor" style="" stroke-width="3" class="flowchart" id="submit_other" transform="matrix(1,0,0,1,518.4883,312.3066)"></rect><text style="text-anchor: start; font-family: Arial; font-size: 14px;" x="10" y="17.875" text-anchor="start" font-family="&quot;Arial&quot;" font-size="14px" stroke="none" fill="currentColor" id="submit_othert" class="flowchartt" transform="matrix(1,0,0,1,518.4883,312.3066)" stroke-width="1"><tspan dy="4.8828125">通知代理机构在中国版权中心网站提交申请</tspan></text><path style="" fill="none" stroke="currentColor" d="M247.3671875,82.685546875C247.3671875,82.685546875,247.3671875,156.0346509561641,247.3671875,175.1240418132249" stroke-width="3" marker-end="url(#raphael-marker-endblock33-obj6858x)"></path><path style="" fill="none" stroke="currentColor" d="M247.3671875,215.37109375C247.3671875,215.37109375,247.3671875,253.57186460494995,247.3671875,266.87125406763516" stroke-width="3" marker-end="url(#raphael-marker-endblock33-objvr8eb)"></path><path style="" fill="none" stroke="currentColor" d="M247.3671875,388.9921875C247.3671875,388.9921875,247.3671875,462.3412915811641,247.3671875,481.43068243822484" stroke-width="3" marker-end="url(#raphael-marker-endblock33-obj21x6e)"></path><text style="text-anchor: start; font-family: Arial; font-size: 14px;" x="252.3671875" y="398.9921875" text-anchor="start" font-family="&quot;Arial&quot;" font-size="14px" stroke="none" fill="currentColor" stroke-width="1"><tspan dy="4.8828125">yes</tspan></text><path style="" fill="none" stroke="currentColor" d="M364.98828125,330.181640625C364.98828125,330.181640625,488.65636303275824,330.181640625,513.987788964334,330.181640625" stroke-width="3" marker-end="url(#raphael-marker-endblock33-objhmk20)"></path><text style="text-anchor: start; font-family: Arial; font-size: 14px;" x="369.98828125" y="320.181640625" text-anchor="start" font-family="&quot;Arial&quot;" font-size="14px" stroke="none" fill="currentColor" stroke-width="1"><tspan dy="4.884765625">no</tspan></text><path style="" fill="none" stroke="currentColor" d="M247.3671875,521.677734375C247.3671875,521.677734375,247.3671875,595.0268384561641,247.3671875,614.116229313225" stroke-width="3" marker-end="url(#raphael-marker-endblock33-obja2kgt)"></path><path style="" fill="none" stroke="currentColor" d="M247.3671875,654.36328125C247.3671875,654.36328125,247.3671875,727.7123853311641,247.3671875,746.801776188225" stroke-width="3" marker-end="url(#raphael-marker-endblock33-obje41gj)"></path><path style="" fill="none" stroke="currentColor" d="M247.3671875,787.048828125C247.3671875,787.048828125,247.3671875,860.3979322061641,247.3671875,879.487323063225" stroke-width="3" marker-end="url(#raphael-marker-endblock33-objcyeua)"></path><path style="" fill="none" stroke="currentColor" d="M247.3671875,919.734375C247.3671875,919.734375,247.3671875,993.0834790811641,247.3671875,1012.1728699382248" stroke-width="3" marker-end="url(#raphael-marker-endblock33-objmhmp6)"></path><path style="" fill="none" stroke="currentColor" d="M247.3671875,1052.419921875C247.3671875,1052.419921875,247.3671875,1125.7690259561641,247.3671875,1144.8584168132247" stroke-width="3" marker-end="url(#raphael-marker-endblock33-objkjcpr)"></path><path style="" fill="none" stroke="currentColor" d="M247.3671875,1185.10546875C247.3671875,1185.10546875,247.3671875,1258.4545728311641,247.3671875,1277.543963688225" stroke-width="3" marker-end="url(#raphael-marker-endblock33-objokwql)"></path><path style="" fill="none" stroke="currentColor" d="M247.3671875,1317.791015625C247.3671875,1317.791015625,247.3671875,1384.8537638931302,247.3671875,1403.027506709933" stroke-width="3" marker-end="url(#raphael-marker-endblock33-objvx9nf)"></path><path style="" fill="none" stroke="currentColor" d="M247.3671875,1457.6796875C247.3671875,1457.6796875,247.3671875,1531.0287915811641,247.3671875,1550.1181824382247" stroke-width="3" marker-end="url(#raphael-marker-endblock33-objnfsy5)"></path><path style="" fill="none" stroke="currentColor" d="M247.3671875,1590.365234375C247.3671875,1590.365234375,247.3671875,1663.7143384561641,247.3671875,1682.803729313225" stroke-width="3" marker-end="url(#raphael-marker-endblock33-obj5ksnv)"></path><path style="" fill="none" stroke="currentColor" d="M662.35546875,348.056640625C662.35546875,348.056640625,662.35546875,716.298828125,662.35546875,716.298828125C662.35546875,716.298828125,247.3671875,716.298828125,247.3671875,716.298828125C247.3671875,716.298828125,247.3671875,737.3418998718262,247.3671875,746.7948422580957" stroke-width="3" marker-end="url(#raphael-marker-endblock33-objj2vsw)"></path></svg>