<svg xmlns="http://www.w3.org/2000/svg" viewBox="0 0 128 128">
  <!-- Carol's Blog favicon: tooth + letter C, warm theme -->
  <rect width="128" height="128" rx="28" fill="#282728"/>
  <!-- Tooth shape forming letter C -->
  <path d="M88 38c-4-8-14-14-26-14C44 24 30 40 30 58c0 12 5 22 14 28 3 2 5 5 6 9l4 14c1 3 3 4 5 4h0c2 0 4-1 5-4l3-10c1-3 3-5 6-5s5 2 6 5l3 10c1 3 3 4 5 4h0c2 0 4-1 5-4l4-14c1-4 3-7 6-9 5-4 9-9 11-16" fill="none" stroke="#fdfdfd" stroke-width="8" stroke-linecap="round"/>
  <style>
    @media (prefers-color-scheme: dark) {
      rect { fill: #3B4252; }
      path { stroke: #ECEFF4; }
    }
  </style>
</svg>
